HIERARCHY
ROOT Hips
{
	OFFSET 0.000000 0.000000 0.000000
	CHANNELS 6 Xposition Yposition Zposition Zrotation Yrotation Xrotation 
	JOINT LeftUpLeg_virtual
	{
		OFFSET 0.000000 0.000000 0.000000
		CHANNELS 3 Zrotation Yrotation Xrotation
		JOINT LeftUpLeg
		{
			OFFSET 10.205400 -3.823500 0.155100
			CHANNELS 3 Zrotation Yrotation Xrotation
			JOINT LeftLeg
			{
				OFFSET 0.708757 -12.982077 0.567790
				CHANNELS 3 Zrotation Yrotation Xrotation
				JOINT LeftFoot
				{
					OFFSET -0.708756 -10.717838 -2.184338
					CHANNELS 3 Zrotation Yrotation Xrotation
					JOINT LeftToeBase
					{
						OFFSET 0.108149 -7.191104 7.560241
						CHANNELS 3 Zrotation Yrotation Xrotation
						End Site
						{
							OFFSET 0.000000 0.000000 0.000000
						}
					}
				}
			}
		}
	}
	JOINT RightUpLeg_virtual
	{
		OFFSET 0.000000 0.000000 0.000000
		CHANNELS 3 Zrotation Yrotation Xrotation
		JOINT RightUpLeg
		{
			OFFSET -10.205400 -3.823500 0.005500
			CHANNELS 3 Zrotation Yrotation Xrotation
			JOINT RightLeg
			{
				OFFSET -0.708756 -12.982134 0.610632
				CHANNELS 3 Zrotation Yrotation Xrotation
				JOINT RightFoot
				{
					OFFSET 0.708754 -10.717769 -1.945823
					CHANNELS 3 Zrotation Yrotation Xrotation
					JOINT RightToeBase
					{
						OFFSET -0.108140 -7.191069 7.372968
						CHANNELS 3 Zrotation Yrotation Xrotation
						End Site
						{
							OFFSET 0.000000 0.000000 0.000000
						}
					}
				}
			}
		}
	}
	JOINT Spine_virtual
	{
		OFFSET 0.000000 0.000000 0.000000
		CHANNELS 3 Zrotation Yrotation Xrotation
		JOINT Spine
		{
			OFFSET 0.000000 6.876099 0.125700
			CHANNELS 3 Zrotation Yrotation Xrotation
			JOINT Spine1
			{
				OFFSET 0.000000 8.022060 0.146608
				CHANNELS 3 Zrotation Yrotation Xrotation
				JOINT Spine2
				{
					OFFSET 0.000000 9.168068 0.167552
					CHANNELS 3 Zrotation Yrotation Xrotation
					JOINT Neck_virtual
					{
						OFFSET 0.000000 0.000000 0.000000
						CHANNELS 3 Zrotation Yrotation Xrotation
						JOINT Neck
						{
							OFFSET 0.000000 10.314075 0.188496
							CHANNELS 3 Zrotation Yrotation Xrotation
							JOINT Head
							{
								OFFSET 0.000000 7.643700 -2.377400
								CHANNELS 3 Zrotation Yrotation Xrotation
								End Site
								{
									OFFSET 0.000000 0.000000 0.000000
								}
							}
						}
					}
					JOINT LeftShoulder_virtual
					{
						OFFSET 0.000000 0.000000 0.000000
						CHANNELS 3 Zrotation Yrotation Xrotation
						JOINT LeftShoulder
						{
							OFFSET 4.392200 8.824978 0.174984
							CHANNELS 3 Zrotation Yrotation Xrotation
							JOINT LeftArm
							{
								OFFSET 8.771219 -2.981674 -0.026999
								CHANNELS 3 Zrotation Yrotation Xrotation
								JOINT LeftForeArm
								{
									OFFSET 8.512804 0.000000 -0.000000
									CHANNELS 3 Zrotation Yrotation Xrotation
									JOINT LeftHand
									{
										OFFSET 18.484802 0.000000 -0.000000
										CHANNELS 3 Zrotation Yrotation Xrotation
										End Site
										{
											OFFSET 0.000000 0.000000 0.000000
										}
									}
								}
							}
						}
					}
					JOINT RightShoulder_virtual
					{
						OFFSET 0.000000 0.000000 0.000000
						CHANNELS 3 Zrotation Yrotation Xrotation
						JOINT RightShoulder
						{
							OFFSET -4.392200 8.824993 0.141379
							CHANNELS 3 Zrotation Yrotation Xrotation
							JOINT RightArm
							{
								OFFSET -8.771282 -2.981682 -0.094208
								CHANNELS 3 Zrotation Yrotation Xrotation
								JOINT RightForeArm
								{
									OFFSET -8.494598 0.000000 0.000000
									CHANNELS 3 Zrotation Yrotation Xrotation
									JOINT RightHand
									{
										OFFSET -18.483803 0.000000 0.000001
										CHANNELS 3 Zrotation Yrotation Xrotation
										End Site
										{
											OFFSET 0.000000 0.000000 0.000000
										}
									}
								}
							}
						}
					}
				}
			}
		}
	}
}
MOTION
Frames: 10
Frame Time: 0.033333
2.481090 35.528374 18.444597 -179.970335 2.113209 179.818950 -2.948933 -3.511794 10.411443 -15.990854 -1.476247 -20.472988 15.582791 10.329948 18.422738 1.851383 0.099141 5.935317 0.000000 0.000000 0.000000 1.373001 -2.378440 8.740971 4.800372 -0.085875 -16.755140 -5.799915 1.248242 18.375941 3.374339 3.289464 4.578506 0.000000 0.000000 0.000000 0.667478 0.220777 -1.489372 -3.954115 1.286692 -6.034576 0.723111 -3.341594 2.966014 -0.014946 0.023136 -0.067134 0.457983 -1.818707 5.326123 -0.671143 2.202123 15.013193 0.000000 0.000000 0.000000 2.010805 -1.020563 2.288440 -7.778944 0.509863 -5.942199 -6.430800 10.851174 -35.886019 0.825429 -44.272234 -2.461434 0.000000 0.000000 0.000000 -1.504278 -0.255826 1.703313 18.683562 -6.345051 -14.799428 9.702279 -8.339016 -43.471108 0.130168 27.949095 2.395025 0.000000 0.000000 0.000000 
2.476507 35.524715 18.390728 -179.979624 2.228929 179.733163 -2.936300 -3.485950 10.368976 -16.252806 -0.906648 -20.158788 15.416604 10.836449 18.001008 2.061318 0.274944 6.575053 0.000000 0.000000 0.000000 1.435254 -2.389009 8.546149 4.680070 -0.207932 -16.826902 -5.804648 1.197175 18.198242 3.439473 3.466712 4.867690 0.000000 0.000000 0.000000 0.644387 0.224988 -1.546448 -3.919093 1.274789 -5.996220 0.699211 -3.331986 2.933314 -0.016925 0.035882 -0.057502 0.427884 -1.803216 5.365081 -0.659409 2.158995 15.016989 0.000000 0.000000 0.000000 1.991526 -0.981405 2.266649 -7.814787 0.527494 -5.916582 -6.398906 10.769088 -35.791400 0.794889 -44.162514 -2.401281 0.000000 0.000000 0.000000 -1.532435 -0.245556 1.732124 18.678901 -6.384054 -14.777739 9.831682 -8.385029 -43.222868 -0.028689 28.030804 2.246968 0.000000 0.000000 0.000000 
2.473125 35.522533 18.328783 -179.943055 2.175286 179.712208 -3.000609 -3.498884 10.267166 -16.196110 -0.987473 -20.074667 15.518029 10.621466 18.400077 2.088822 0.293429 6.254014 0.000000 0.000000 0.000000 1.419131 -2.416579 8.499869 4.654760 -0.123477 -16.632166 -5.743559 1.108305 18.227367 3.448082 3.403348 5.075164 0.000000 0.000000 0.000000 0.640170 0.211726 -1.569808 -3.856318 1.233642 -6.001323 0.689877 -3.338745 2.953001 -0.021233 0.013356 -0.025094 0.434161 -1.803577 5.365283 -0.580441 2.108868 15.063029 0.000000 0.000000 0.000000 1.979988 -0.951113 2.252367 -7.910240 0.474629 -5.854669 -6.331333 10.669837 -35.768837 0.779411 -43.897120 -2.412667 0.000000 0.000000 0.000000 -1.547642 -0.235454 1.738204 18.679008 -6.374510 -14.864440 9.778075 -8.480843 -43.350603 0.102032 28.102405 2.376321 0.000000 0.000000 0.000000 
2.473784 35.521767 18.266323 -179.875190 2.244918 179.748886 -2.985855 -3.384991 10.126262 -16.181557 -1.045020 -19.909518 15.604750 10.486287 18.605794 2.135693 0.336301 6.061922 0.000000 0.000000 0.000000 1.437042 -2.249571 8.399479 4.653020 -0.068744 -16.504350 -5.730168 1.149833 18.196529 3.418756 3.219163 5.278114 0.000000 0.000000 0.000000 0.629414 0.253748 -1.575784 -3.757832 1.200577 -6.025767 0.718828 -3.314006 2.956450 -0.001657 0.013747 -0.032464 0.398891 -1.693728 5.437941 -0.474837 2.007002 15.091547 0.000000 0.000000 0.000000 1.940518 -0.896458 2.320695 -8.016076 0.417115 -5.864910 -6.231691 10.653959 -35.870617 0.660119 -43.592183 -2.324870 0.000000 0.000000 0.000000 -1.591917 -0.167660 1.836272 18.677460 -6.303232 -14.872459 9.734539 -8.552543 -43.306237 0.006722 28.147230 2.255113 0.000000 0.000000 0.000000 
2.472921 35.520557 18.203651 -179.961756 2.247517 179.830247 -3.085247 -3.391820 10.066315 -16.209974 -1.018393 -19.852834 15.616896 10.281241 18.720924 2.081803 0.506470 5.963614 0.000000 0.000000 0.000000 1.333268 -2.131640 8.349611 4.675802 0.111223 -16.459593 -5.763238 0.947274 18.200340 3.466000 3.294210 5.459628 0.000000 0.000000 0.000000 0.543939 0.319739 -1.584238 -3.715940 1.167485 -6.060023 0.710821 -3.259267 2.988083 -0.009888 0.031411 -0.010204 0.460991 -1.714776 5.517891 -0.293470 1.901763 15.091885 0.000000 0.000000 0.000000 1.990487 -0.925576 2.371354 -8.113321 0.269752 -5.783005 -6.148579 10.748815 -35.976048 0.671011 -43.264908 -2.455246 0.000000 0.000000 0.000000 -1.548433 -0.182932 1.811565 18.654208 -6.303919 -14.842293 9.724461 -8.628734 -43.449514 0.027319 28.283492 2.270535 0.000000 0.000000 0.000000 
2.474263 35.519543 18.147423 -179.933807 2.272677 179.826327 -3.098547 -3.318011 10.073193 -16.200319 -0.997785 -19.825541 15.659303 10.198770 18.858282 2.191728 0.382468 5.784651 0.000000 0.000000 0.000000 1.345453 -2.069862 8.418924 4.662993 0.206292 -16.383899 -5.763418 0.891339 18.168098 3.495515 3.189404 5.614535 0.000000 0.000000 0.000000 0.521540 0.354216 -1.495885 -3.617848 1.075482 -6.068962 0.716127 -3.227329 2.979889 -0.006576 0.009009 -0.020129 0.475581 -1.653289 5.506062 -0.090384 1.764323 14.978036 0.000000 0.000000 0.000000 1.989838 -0.838476 2.344571 -8.201992 0.214501 -5.693241 -6.098366 10.919901 -36.143913 0.538567 -43.028945 -2.438424 0.000000 0.000000 0.000000 -1.571741 -0.071945 1.814395 18.679017 -6.255683 -14.836733 9.604943 -8.641980 -43.664744 0.007390 28.408666 2.238153 0.000000 0.000000 0.000000 
2.478665 35.519985 18.085102 -179.948915 2.346258 179.921499 -3.085325 -3.313402 10.106458 -16.239475 -1.009048 -19.820531 15.658661 10.037426 18.846830 2.150376 0.522109 5.731841 0.000000 0.000000 0.000000 1.375969 -1.965612 8.456093 4.636163 0.128465 -16.412024 -5.724258 0.983406 18.245974 3.604138 3.001235 5.517682 0.000000 0.000000 0.000000 0.467859 0.433428 -1.437792 -3.535352 1.008581 -6.119583 0.705027 -3.169712 2.964291 -0.029199 0.004305 -0.018145 0.484801 -1.578680 5.547699 0.141040 1.626374 14.804980 0.000000 0.000000 0.000000 1.991349 -0.749770 2.439494 -8.248885 0.142782 -5.792620 -6.022545 11.065227 -36.129570 0.439492 -42.871134 -2.451480 0.000000 0.000000 0.000000 -1.590902 -0.059516 1.885106 18.737029 -6.220110 -14.908677 9.554229 -8.591257 -43.742840 -0.067964 28.594283 2.204984 0.000000 0.000000 0.000000 
2.479727 35.523003 18.020817 -179.921663 2.388711 179.846859 -3.113165 -3.321159 10.215688 -16.237590 -1.000782 -19.767454 15.655326 9.919991 18.943364 2.240252 0.582442 5.564730 0.000000 0.000000 0.000000 1.394047 -1.981573 8.601637 4.596364 0.146673 -16.394016 -5.779719 0.899075 18.204401 3.638404 3.110602 5.566019 0.000000 0.000000 0.000000 0.444766 0.495836 -1.271043 -3.421626 0.959375 -6.102088 0.685608 -3.239278 2.961966 -0.010363 0.032858 -0.013437 0.456504 -1.498193 5.539473 0.370481 1.508233 14.571435 0.000000 0.000000 0.000000 1.921148 -0.689754 2.428306 -8.315371 0.088065 -5.527392 -5.938206 11.251069 -36.293836 0.395304 -42.738597 -2.542004 0.000000 0.000000 0.000000 -1.658678 0.053014 1.898492 18.845708 -6.199595 -14.841210 9.501735 -8.662210 -43.912413 -0.138180 28.803604 2.125511 0.000000 0.000000 0.000000 
2.476341 35.524387 17.959564 -179.937563 2.610999 179.852391 -3.130362 -3.261775 10.284237 -16.240730 -1.002830 -19.703337 15.624789 9.794943 18.997268 2.374529 0.678161 5.446491 0.000000 0.000000 0.000000 1.422374 -1.915256 8.656884 4.557088 0.161724 -16.397235 -5.794370 0.985868 18.253903 3.782927 3.061218 5.487311 0.000000 0.000000 0.000000 0.418505 0.502102 -1.148997 -3.317977 0.880843 -6.133147 0.661246 -3.024856 2.944989 -0.018858 0.010890 -0.012804 0.436562 -1.405004 5.555093 0.529905 1.409703 14.274726 0.000000 0.000000 0.000000 1.883957 -0.608431 2.512490 -8.374521 0.048085 -5.577818 -5.819688 11.311875 -36.187240 0.296300 -42.732191 -2.543377 0.000000 0.000000 0.000000 -1.695375 0.173880 1.934570 19.025150 -6.200065 -14.702687 9.376661 -8.807905 -44.041630 -0.173229 28.990591 2.074644 0.000000 0.000000 0.000000 
2.464269 35.519302 17.890354 -179.834072 2.760565 179.859303 -3.035289 -3.301045 10.327164 -16.272145 -1.013612 -19.591257 15.611888 9.789236 19.130282 2.468866 0.726932 5.256531 0.000000 0.000000 0.000000 1.506135 -1.955344 8.680718 4.562228 0.298863 -16.373936 -5.870731 1.214793 18.315728 3.921691 2.772284 5.361780 0.000000 0.000000 0.000000 0.463293 0.505694 -1.030922 -3.179556 0.846105 -6.180847 0.656325 -2.948468 2.918868 0.029205 0.019501 -0.064746 0.325293 -1.223755 5.616647 0.588794 1.355126 13.959518 0.000000 0.000000 0.000000 1.753657 -0.527538 2.599553 -8.407819 0.020676 -5.707799 -5.745351 11.343395 -36.042533 0.168338 -42.829166 -2.449964 0.000000 0.000000 0.000000 -1.843591 0.241554 2.025197 19.202916 -6.309149 -14.594052 9.281250 -8.983715 -44.070402 -0.213738 29.192266 2.025580 0.000000 0.000000 0.000000 
